<?xml version="1.0" encoding="UTF-8"?>
<svg width="30px" height="30px" viewBox="0 0 30 30" version="1.1" xmlns="http://www.w3.org/2000/svg" xmlns:xlink="http://www.w3.org/1999/xlink">
    <!-- Generator: Sketch 53.2 (72643) - https://sketchapp.com -->
    <title>Group 12 Copy 2</title>
    <desc>Created with Sketch.</desc>
    <g id="Page-1" stroke="none" stroke-width="1" fill="none" fill-rule="evenodd">
        <g id="Home-without-quote" transform="translate(-25.000000, -617.000000)" fill-rule="nonzero">
            <g id="Group-12-Copy-2" transform="translate(25.000000, 617.000000)">
                <rect id="Rectangle" fill="#AABFBF" x="0" y="0" width="30" height="30" rx="5"></rect>
                <g id="magic-wand" transform="translate(2.000000, 1.000000)">
                    <path d="M22.5171328,17.2476744 L19.5062978,13.164809 L21.1230119,8.34006873 C21.2819184,7.86597312 21.1609911,7.34157559 20.8111794,6.98757582 C20.4613676,6.63357604 19.9432518,6.5112009 19.4746874,6.67200986 L14.7071048,8.30807985 L10.6723095,5.26119816 C10.2759753,4.96182313 9.74582108,4.91600122 9.30498377,5.14338162 C8.86414645,5.37076203 8.58912797,5.83157479 8.59541899,6.3321575 L8.65980484,11.426406 L4.54936194,14.367968 C4.14541641,14.6570469 3.93866712,15.153071 4.01602335,15.6476803 C4.09337958,16.1421325 4.44156029,16.5492637 4.91393036,16.6979687 L9.72135601,18.2102489 L11.2156671,23.075152 C11.3625352,23.5531775 11.7648498,23.9055267 12.2535299,23.9838091 C12.3215661,23.9946554 12.3894469,24 12.4571725,24 C12.8746321,24 13.2722089,23.7960414 13.5181023,23.4441638 L16.4248636,19.2845093 L21.4588436,19.3495874 C21.9498537,19.3535958 22.4089428,19.0774854 22.6335554,18.6315274 C22.8583234,18.1855695 22.8130436,17.6489109 22.5171328,17.2476744 Z" id="Path" fill="#FFFFFF"></path>
                    <polygon id="Path" fill="#FFFFFF" points="3.42194257 0.5 4.45645955 2.43936667 6.3480017 3.5000397 4.45645955 4.56063333 3.42194257 6.5 2.38750304 4.56063333 0.495960884 3.5000397 2.38750304 2.43936667"></polygon>
                    <g id="Group" transform="translate(13.857568, 0.000000)">
                        <polygon id="Path" fill="#FFFFFF" points="2.41975457 23.8960211 3.25944204 25.4612764 4.79467297 26.3173063 3.25944204 27.1734155 2.41975457 28.7386708 1.5801448 27.1734155 0.0448361717 26.3173063 1.5801448 25.4612764"></polygon>
                        <polygon id="Path" fill="#AABFBF" points="3.56374639 -2.27373675e-13 4.06626896 0.936839789 4.9850608 1.44911092 4.06626896 1.96146127 3.56374639 2.89822183 3.06130152 1.96146127 2.14243197 1.44911092 3.06130152 0.936839789"></polygon>
                    </g>
                    <g id="Group" transform="translate(22.000000, 9.000000)" fill="#FFFFFF">
                        <polygon id="Path" points="3.6843191 0.469644231 3.24495688 1.96964423 3.6843191 3.46964423 2.18426302 3.03028201 0.684319101 3.46964423 1.12362524 1.96964423 0.684319101 0.469644231 2.18426302 0.908950373"></polygon>
                    </g>
                </g>
            </g>
        </g>
    </g>
</svg>