<?xml version="1.0" encoding="UTF-8"?>
<svg width="29px" height="57px" viewBox="0 0 29 57" version="1.1" xmlns="http://www.w3.org/2000/svg" xmlns:xlink="http://www.w3.org/1999/xlink">
    <!-- Generator: Sketch 53.2 (72643) - https://sketchapp.com -->
    <title>Asset 1</title>
    <desc>Created with Sketch.</desc>
    <defs>
        <filter x="-34.8%" y="-15.4%" width="169.6%" height="130.8%" filterUnits="objectBoundingBox" id="filter-1">
            <feOffset dx="1" dy="1" in="SourceAlpha" result="shadowOffsetOuter1"></feOffset>
            <feGaussianBlur stdDeviation="1.5" in="shadowOffsetOuter1" result="shadowBlurOuter1"></feGaussianBlur>
            <feColorMatrix values="0 0 0 0 1   0 0 0 0 1   0 0 0 0 1  0 0 0 0.592083698 0" type="matrix" in="shadowBlurOuter1" result="shadowMatrixOuter1"></feColorMatrix>
            <feMerge>
                <feMergeNode in="shadowMatrixOuter1"></feMergeNode>
                <feMergeNode in="SourceGraphic"></feMergeNode>
            </feMerge>
        </filter>
        <linearGradient x1="0.00888915919%" y1="50.0119589%" x2="99.9626341%" y2="50.0119589%" id="linearGradient-2">
            <stop stop-color="#E0E0E0" offset="0%"></stop>
            <stop stop-color="#C9C9C9" offset="13%"></stop>
            <stop stop-color="#E7E7E7" offset="38%"></stop>
            <stop stop-color="#DADADA" offset="49%"></stop>
            <stop stop-color="#E9E9E9" offset="64%"></stop>
            <stop stop-color="#F0F0F0" offset="68%"></stop>
            <stop stop-color="#DBDBDB" offset="100%"></stop>
        </linearGradient>
        <linearGradient x1="0%" y1="50.0151101%" x2="98.8783666%" y2="50.0151101%" id="linearGradient-3">
            <stop stop-color="#000000" offset="0%"></stop>
            <stop stop-color="#B0B0B0" offset="15%"></stop>
            <stop stop-color="#000000" offset="24%"></stop>
            <stop stop-color="#000000" offset="66%"></stop>
            <stop stop-color="#3D3D3D" offset="84%"></stop>
            <stop stop-color="#000000" offset="100%"></stop>
        </linearGradient>
        <linearGradient x1="0%" y1="49.689441%" x2="100%" y2="49.689441%" id="linearGradient-4">
            <stop stop-color="#B0B0B0" offset="0%"></stop>
            <stop stop-color="#878787" offset="13%"></stop>
            <stop stop-color="#D4D4D4" offset="38%"></stop>
            <stop stop-color="#DADADA" offset="49%"></stop>
            <stop stop-color="#E9E9E9" offset="64%"></stop>
            <stop stop-color="#F0F0F0" offset="68%"></stop>
            <stop stop-color="#949494" offset="100%"></stop>
        </linearGradient>
        <linearGradient x1="0%" y1="50%" x2="99.9366688%" y2="50%" id="linearGradient-5">
            <stop stop-color="#000000" offset="0%"></stop>
            <stop stop-color="#828282" offset="42%"></stop>
            <stop stop-color="#4D4D4D" offset="74%"></stop>
            <stop stop-color="#000000" offset="100%"></stop>
        </linearGradient>
        <linearGradient x1="0%" y1="50%" x2="99.9448428%" y2="50%" id="linearGradient-6">
            <stop stop-color="#B0B0B0" offset="0%"></stop>
            <stop stop-color="#878787" offset="13%"></stop>
            <stop stop-color="#D4D4D4" offset="38%"></stop>
            <stop stop-color="#DADADA" offset="49%"></stop>
            <stop stop-color="#E9E9E9" offset="64%"></stop>
            <stop stop-color="#F0F0F0" offset="68%"></stop>
            <stop stop-color="#949494" offset="100%"></stop>
        </linearGradient>
        <linearGradient x1="0%" y1="50%" x2="100%" y2="50%" id="linearGradient-7">
            <stop stop-color="#D6D6D6" offset="0%"></stop>
            <stop stop-color="#FFFFFF" offset="12%"></stop>
            <stop stop-color="#FFFFFF" offset="51%"></stop>
            <stop stop-color="#E3E3E3" offset="74%"></stop>
            <stop stop-color="#FFFFFF" offset="88%"></stop>
            <stop stop-color="#FFFFFF" offset="100%"></stop>
        </linearGradient>
    </defs>
    <g id="Page-1" stroke="none" stroke-width="1" fill="none" fill-rule="evenodd">
        <g id="Home-1-Copy" transform="translate(-115.000000, -1992.000000)">
            <g id="Group-5" transform="translate(68.000000, 171.000000)">
                <g id="Asset-1" filter="url(#filter-1)" transform="translate(49.000000, 1822.000000)">
                    <path d="M6.12975,17.7477612 C5.31818537,18.8105589 4.23581537,19.6381369 2.99475,20.1447761 C1.63212498,20.7632769 0.776452549,22.1359009 0.825,23.6253731 L0.825,47.7514925 C0.957758994,49.5748334 2.28643311,51.091023 4.08375,51.4701493 L18.678,51.4701493 C20.8021042,51.404068 22.5773152,49.8412364 22.902,47.7514925 L22.902,23.5104478 C22.7896087,21.799139 21.6435647,20.3274151 20.00625,19.791791 C20.00625,19.791791 17.1105,18.15 16.87125,17.1485075" id="Path" fill-opacity="0.7" fill="url(#linearGradient-2)" fill-rule="nonzero"></path>
                    <polyline id="Path" fill="#FFFFFF" fill-rule="nonzero" opacity="0.6" points="10.45 16.1677866 10.45 41.6735861 13.596 44.0738806 13.596 15.2276119"></polyline>
                    <path d="M8.481,8.62761194 L8.481,3.82537313 C8.481,3.82537313 8.547,0.763432836 12.045,0.820895522 C12.8867941,0.746730884 13.720896,1.02991248 14.3415679,1.60059135 C14.9622398,2.17127022 15.3116995,2.9763183 15.30375,3.81716418 L15.30375,8.80820896" id="Path" fill-opacity="0.5" fill="url(#linearGradient-3)" fill-rule="nonzero"></path>
                    <rect id="Rectangle" fill="url(#linearGradient-4)" fill-rule="nonzero" x="6.072" y="8.20895522" width="11.6985" height="1.32164179"></rect>
                    <rect id="Rectangle" fill-opacity="0.5" fill="url(#linearGradient-5)" fill-rule="nonzero" x="5.412" y="9.46492537" width="13.02675" height="6.96119403"></rect>
                    <rect id="Rectangle" fill="url(#linearGradient-6)" fill-rule="nonzero" x="4.44675" y="16.4261194" width="14.95725" height="1.55970149"></rect>
                    <rect id="Rectangle" fill="url(#linearGradient-7)" fill-rule="nonzero" x="0.83325" y="30.4716418" width="21.076" height="10.441791"></rect>
                    <text id="EYE-DROPS" font-family="Avenir-Black, Avenir" font-size="3.19" font-weight="700" fill="#192324">
                        <tspan x="3.3" y="37.1">EYE DROPS</tspan>
                    </text>
                    <g id="Group" style="mix-blend-mode: overlay;" transform="translate(4.125000, 7.371642)" fill="#BBBDBF" fill-rule="nonzero">
                        <path d="M0.53625,9.79328358 C0.53625,9.9738806 0.53625,10.1216418 0.45375,10.1216418 L0.45375,10.1216418 C0.40425,10.1216418 0.37125,9.9738806 0.37125,9.79328358 L0.37125,1.03432836 C0.37125,0.853731343 0.37125,0.705970149 0.45375,0.705970149 L0.45375,0.705970149 C0.495,0.705970149 0.53625,0.853731343 0.53625,1.03432836 L0.53625,9.79328358 Z" id="Path"></path>
                        <path d="M0.825,9.79328358 C0.825,9.9738806 0.825,10.1216418 0.7425,10.1216418 L0.7425,10.1216418 C0.693,10.1216418 0.66,9.9738806 0.66,9.79328358 L0.66,1.03432836 C0.66,0.853731343 0.66,0.705970149 0.7425,0.705970149 L0.7425,0.705970149 C0.78375,0.705970149 0.825,0.853731343 0.825,1.03432836 L0.825,9.79328358 Z" id="Path"></path>
                        <path d="M1.13025,9.79328358 C1.13025,9.9738806 1.13025,10.1216418 1.04775,10.1216418 L1.04775,10.1216418 C0.99825,10.1216418 0.96525,9.9738806 0.96525,9.79328358 L0.96525,1.03432836 C0.96525,0.853731343 0.96525,0.705970149 1.04775,0.705970149 L1.04775,0.705970149 C1.089,0.705970149 1.13025,0.853731343 1.13025,1.03432836 L1.13025,9.79328358 Z" id="Path"></path>
                        <path d="M1.4355,9.79328358 C1.4355,9.9738806 1.4355,10.1216418 1.353,10.1216418 L1.353,10.1216418 C1.3035,10.1216418 1.2705,9.9738806 1.2705,9.79328358 L1.2705,1.03432836 C1.2705,0.853731343 1.2705,0.705970149 1.353,0.705970149 L1.353,0.705970149 C1.39425,0.705970149 1.4355,0.853731343 1.4355,1.03432836 L1.4355,9.79328358 Z" id="Path"></path>
                        <path d="M1.7325,9.79328358 C1.7325,9.9738806 1.7325,10.1216418 1.65,10.1216418 L1.65,10.1216418 C1.6005,10.1216418 1.5675,9.9738806 1.5675,9.79328358 L1.5675,1.03432836 C1.5675,0.853731343 1.5675,0.705970149 1.65,0.705970149 L1.65,0.705970149 C1.6995,0.705970149 1.7325,0.853731343 1.7325,1.03432836 L1.7325,9.79328358 Z" id="Path"></path>
                        <path d="M2.0295,9.79328358 C2.0295,9.9738806 2.0295,10.1216418 1.947,10.1216418 L1.947,10.1216418 C1.8975,10.1216418 1.8645,9.9738806 1.8645,9.79328358 L1.8645,1.03432836 C1.8645,0.853731343 1.8645,0.705970149 1.947,0.705970149 L1.947,0.705970149 C1.98825,0.705970149 2.0295,0.853731343 2.0295,1.03432836 L2.0295,9.79328358 Z" id="Path"></path>
                        <path d="M2.33475,9.79328358 C2.33475,9.9738806 2.33475,10.1216418 2.25225,10.1216418 L2.25225,10.1216418 C2.20275,10.1216418 2.16975,9.9738806 2.16975,9.79328358 L2.16975,1.03432836 C2.16975,0.853731343 2.16975,0.705970149 2.25225,0.705970149 L2.25225,0.705970149 C2.30175,0.705970149 2.33475,0.853731343 2.33475,1.03432836 L2.33475,9.79328358 Z" id="Path"></path>
                        <path d="M2.63175,9.79328358 C2.63175,9.9738806 2.63175,10.1216418 2.54925,10.1216418 L2.54925,10.1216418 C2.49975,10.1216418 2.46675,9.9738806 2.46675,9.79328358 L2.46675,1.03432836 C2.46675,0.853731343 2.46675,0.705970149 2.54925,0.705970149 L2.54925,0.705970149 C2.5905,0.705970149 2.63175,0.853731343 2.63175,1.03432836 L2.63175,9.79328358 Z" id="Path"></path>
                        <path d="M2.92875,9.79328358 C2.92875,9.9738806 2.92875,10.1216418 2.84625,10.1216418 L2.84625,10.1216418 C2.79675,10.1216418 2.76375,9.9738806 2.76375,9.79328358 L2.76375,1.03432836 C2.76375,0.853731343 2.76375,0.705970149 2.84625,0.705970149 L2.84625,0.705970149 C2.8875,0.705970149 2.92875,0.853731343 2.92875,1.03432836 L2.92875,9.79328358 Z" id="Path"></path>
                        <path d="M3.22575,9.79328358 C3.22575,9.9738806 3.22575,10.1216418 3.14325,10.1216418 L3.14325,10.1216418 C3.09375,10.1216418 3.06075,9.9738806 3.06075,9.79328358 L3.06075,1.03432836 C3.06075,0.853731343 3.06075,0.705970149 3.14325,0.705970149 L3.14325,0.705970149 C3.1845,0.705970149 3.22575,0.853731343 3.22575,1.03432836 L3.22575,9.79328358 Z" id="Path"></path>
                        <path d="M3.531,9.79328358 C3.531,9.9738806 3.531,10.1216418 3.4485,10.1216418 L3.4485,10.1216418 C3.399,10.1216418 3.366,9.9738806 3.366,9.79328358 L3.366,1.03432836 C3.366,0.853731343 3.366,0.705970149 3.4485,0.705970149 L3.4485,0.705970149 C3.498,0.705970149 3.531,0.853731343 3.531,1.03432836 L3.531,9.79328358 Z" id="Path"></path>
                        <path d="M3.828,9.79328358 C3.828,9.9738806 3.828,10.1216418 3.7455,10.1216418 L3.7455,10.1216418 C3.70425,10.1216418 3.663,9.9738806 3.663,9.79328358 L3.663,1.03432836 C3.663,0.853731343 3.663,0.705970149 3.7455,0.705970149 L3.7455,0.705970149 C3.795,0.705970149 3.828,0.853731343 3.828,1.03432836 L3.828,9.79328358 Z" id="Path"></path>
                        <path d="M4.125,9.79328358 C4.125,9.9738806 4.125,10.1216418 4.0425,10.1216418 L4.0425,10.1216418 C4.00125,10.1216418 3.96,9.9738806 3.96,9.79328358 L3.96,1.03432836 C3.96,0.853731343 3.96,0.705970149 4.0425,0.705970149 L4.0425,0.705970149 C4.092,0.705970149 4.125,0.853731343 4.125,1.03432836 L4.125,9.79328358 Z" id="Path"></path>
                        <path d="M4.43025,9.79328358 C4.43025,9.9738806 4.43025,10.1216418 4.34775,10.1216418 L4.34775,10.1216418 C4.29825,10.1216418 4.26525,9.9738806 4.26525,9.79328358 L4.26525,1.03432836 C4.26525,0.853731343 4.26525,0.705970149 4.34775,0.705970149 L4.34775,0.705970149 C4.39725,0.705970149 4.43025,0.853731343 4.43025,1.03432836 L4.43025,9.79328358 Z" id="Path"></path>
                        <path d="M4.72725,9.79328358 C4.72725,9.9738806 4.72725,10.1216418 4.64475,10.1216418 L4.64475,10.1216418 C4.6035,10.1216418 4.56225,9.9738806 4.56225,9.79328358 L4.56225,1.03432836 C4.56225,0.853731343 4.56225,0.705970149 4.64475,0.705970149 L4.64475,0.705970149 C4.69425,0.705970149 4.72725,0.853731343 4.72725,1.03432836 L4.72725,9.79328358 Z" id="Path"></path>
                        <path d="M5.02425,9.79328358 C5.02425,9.9738806 5.02425,10.1216418 4.94175,10.1216418 L4.94175,10.1216418 C4.89225,10.1216418 4.85925,9.9738806 4.85925,9.79328358 L4.85925,1.03432836 C4.85925,0.853731343 4.85925,0.705970149 4.94175,0.705970149 L4.94175,0.705970149 C4.99125,0.705970149 5.02425,0.853731343 5.02425,1.03432836 L5.02425,9.79328358 Z" id="Path"></path>
                        <path d="M5.3295,9.79328358 C5.3295,9.9738806 5.3295,10.1216418 5.247,10.1216418 L5.247,10.1216418 C5.1975,10.1216418 5.1645,9.9738806 5.1645,9.79328358 L5.1645,1.03432836 C5.1645,0.853731343 5.1645,0.705970149 5.247,0.705970149 L5.247,0.705970149 C5.28825,0.705970149 5.3295,0.853731343 5.3295,1.03432836 L5.3295,9.79328358 Z" id="Path"></path>
                        <path d="M5.6265,9.79328358 C5.6265,9.9738806 5.6265,10.1216418 5.544,10.1216418 L5.544,10.1216418 C5.4945,10.1216418 5.4615,9.9738806 5.4615,9.79328358 L5.4615,1.03432836 C5.4615,0.853731343 5.4615,0.705970149 5.544,0.705970149 L5.544,0.705970149 C5.58525,0.705970149 5.6265,0.853731343 5.6265,1.03432836 L5.6265,9.79328358 Z" id="Path"></path>
                        <path d="M5.9235,9.79328358 C5.9235,9.9738806 5.9235,10.1216418 5.841,10.1216418 L5.841,10.1216418 C5.7915,10.1216418 5.7585,9.9738806 5.7585,9.79328358 L5.7585,1.03432836 C5.7585,0.853731343 5.7585,0.705970149 5.841,0.705970149 L5.841,0.705970149 C5.8905,0.705970149 5.9235,0.853731343 5.9235,1.03432836 L5.9235,9.79328358 Z" id="Path"></path>
                        <path d="M6.22875,9.79328358 C6.22875,9.9738806 6.22875,10.1216418 6.14625,10.1216418 L6.14625,10.1216418 C6.09675,10.1216418 6.06375,9.9738806 6.06375,9.79328358 L6.06375,1.03432836 C6.06375,0.853731343 6.06375,0.705970149 6.14625,0.705970149 L6.14625,0.705970149 C6.19575,0.705970149 6.22875,0.853731343 6.22875,1.03432836 L6.22875,9.79328358 Z" id="Path"></path>
                        <path d="M6.52575,9.79328358 C6.52575,9.9738806 6.52575,10.1216418 6.44325,10.1216418 L6.44325,10.1216418 C6.402,10.1216418 6.36075,9.9738806 6.36075,9.79328358 L6.36075,1.03432836 C6.36075,0.853731343 6.36075,0.705970149 6.44325,0.705970149 L6.44325,0.705970149 C6.49275,0.705970149 6.52575,0.853731343 6.52575,1.03432836 L6.52575,9.79328358 Z" id="Path"></path>
                        <path d="M6.82275,9.79328358 C6.82275,9.9738806 6.82275,10.1216418 6.74025,10.1216418 L6.74025,10.1216418 C6.699,10.1216418 6.65775,9.9738806 6.65775,9.79328358 L6.65775,1.03432836 C6.65775,0.853731343 6.65775,0.705970149 6.74025,0.705970149 L6.74025,0.705970149 C6.78975,0.705970149 6.82275,0.853731343 6.82275,1.03432836 L6.82275,9.79328358 Z" id="Path"></path>
                        <path d="M7.128,9.79328358 C7.128,9.9738806 7.128,10.1216418 7.0455,10.1216418 L7.0455,10.1216418 C7.00425,10.1216418 6.963,9.9738806 6.963,9.79328358 L6.963,1.03432836 C6.963,0.853731343 6.963,0.705970149 7.0455,0.705970149 L7.0455,0.705970149 C7.095,0.705970149 7.128,0.853731343 7.128,1.03432836 L7.128,9.79328358 Z" id="Path"></path>
                        <path d="M7.425,9.79328358 C7.425,9.9738806 7.425,10.1216418 7.3425,10.1216418 L7.3425,10.1216418 C7.30125,10.1216418 7.26,9.9738806 7.26,9.79328358 L7.26,1.03432836 C7.26,0.853731343 7.26,0.705970149 7.3425,0.705970149 L7.3425,0.705970149 C7.38375,0.705970149 7.425,0.853731343 7.425,1.03432836 L7.425,9.79328358 Z" id="Path"></path>
                        <path d="M7.722,9.79328358 C7.722,9.9738806 7.722,10.1216418 7.6395,10.1216418 L7.6395,10.1216418 C7.59,10.1216418 7.557,9.9738806 7.557,9.79328358 L7.557,1.03432836 C7.557,0.853731343 7.557,0.705970149 7.6395,0.705970149 L7.6395,0.705970149 C7.689,0.705970149 7.722,0.853731343 7.722,1.03432836 L7.722,9.79328358 Z" id="Path"></path>
                        <path d="M8.02725,9.79328358 C8.02725,9.9738806 8.02725,10.1216418 7.94475,10.1216418 L7.94475,10.1216418 C7.89525,10.1216418 7.86225,9.9738806 7.86225,9.79328358 L7.86225,1.03432836 C7.86225,0.853731343 7.86225,0.705970149 7.94475,0.705970149 L7.94475,0.705970149 C7.986,0.705970149 8.02725,0.853731343 8.02725,1.03432836 L8.02725,9.79328358 Z" id="Path"></path>
                        <path d="M8.32425,9.79328358 C8.32425,9.9738806 8.32425,10.1216418 8.24175,10.1216418 L8.24175,10.1216418 C8.2005,10.1216418 8.15925,9.9738806 8.15925,9.79328358 L8.15925,1.03432836 C8.15925,0.853731343 8.15925,0.705970149 8.24175,0.705970149 L8.24175,0.705970149 C8.283,0.705970149 8.32425,0.853731343 8.32425,1.03432836 L8.32425,9.79328358 Z" id="Path"></path>
                        <path d="M8.62125,9.79328358 C8.62125,9.9738806 8.62125,10.1216418 8.53875,10.1216418 L8.53875,10.1216418 C8.48925,10.1216418 8.45625,9.9738806 8.45625,9.79328358 L8.45625,1.03432836 C8.45625,0.853731343 8.45625,0.705970149 8.53875,0.705970149 L8.53875,0.705970149 C8.58825,0.705970149 8.62125,0.853731343 8.62125,1.03432836 L8.62125,9.79328358 Z" id="Path"></path>
                        <path d="M8.9265,9.79328358 C8.9265,9.9738806 8.9265,10.1216418 8.844,10.1216418 L8.844,10.1216418 C8.80275,10.1216418 8.7615,9.9738806 8.7615,9.79328358 L8.7615,1.03432836 C8.7615,0.853731343 8.7615,0.705970149 8.844,0.705970149 L8.844,0.705970149 C8.88525,0.705970149 8.9265,0.853731343 8.9265,1.03432836 L8.9265,9.79328358 Z" id="Path"></path>
                        <path d="M9.2235,9.79328358 C9.2235,9.9738806 9.2235,10.1216418 9.141,10.1216418 L9.141,10.1216418 C9.0915,10.1216418 9.0585,9.9738806 9.0585,9.79328358 L9.0585,1.03432836 C9.0585,0.853731343 9.0585,0.705970149 9.141,0.705970149 L9.141,0.705970149 C9.1905,0.705970149 9.2235,0.853731343 9.2235,1.03432836 L9.2235,9.79328358 Z" id="Path"></path>
                        <path d="M9.5205,9.79328358 C9.5205,9.9738806 9.5205,10.1216418 9.438,10.1216418 L9.438,10.1216418 C9.3885,10.1216418 9.3555,9.9738806 9.3555,9.79328358 L9.3555,1.03432836 C9.3555,0.853731343 9.3555,0.705970149 9.438,0.705970149 L9.438,0.705970149 C9.47925,0.705970149 9.5205,0.853731343 9.5205,1.03432836 L9.5205,9.79328358 Z" id="Path"></path>
                        <path d="M9.82575,9.79328358 C9.82575,9.9738806 9.82575,10.1216418 9.74325,10.1216418 L9.74325,10.1216418 C9.69375,10.1216418 9.66075,9.9738806 9.66075,9.79328358 L9.66075,1.03432836 C9.66075,0.853731343 9.66075,0.705970149 9.74325,0.705970149 L9.74325,0.705970149 C9.7845,0.705970149 9.82575,0.853731343 9.82575,1.03432836 L9.82575,9.79328358 Z" id="Path"></path>
                        <path d="M10.12275,9.79328358 C10.12275,9.9738806 10.12275,10.1216418 10.04025,10.1216418 L10.04025,10.1216418 C9.99075,10.1216418 9.95775,9.9738806 9.95775,9.79328358 L9.95775,1.03432836 C9.95775,0.853731343 9.95775,0.705970149 10.04025,0.705970149 L10.04025,0.705970149 C10.0815,0.705970149 10.12275,0.853731343 10.12275,1.03432836 L10.12275,9.79328358 Z" id="Path"></path>
                        <path d="M10.41975,9.79328358 C10.41975,9.9738806 10.41975,10.1216418 10.33725,10.1216418 L10.33725,10.1216418 C10.296,10.1216418 10.25475,9.9738806 10.25475,9.79328358 L10.25475,1.03432836 C10.25475,0.853731343 10.25475,0.705970149 10.33725,0.705970149 L10.33725,0.705970149 C10.3785,0.705970149 10.41975,0.853731343 10.41975,1.03432836 L10.41975,9.79328358 Z" id="Path"></path>
                        <path d="M10.725,9.79328358 C10.725,9.9738806 10.725,10.1216418 10.6425,10.1216418 L10.6425,10.1216418 C10.593,10.1216418 10.56,9.9738806 10.56,9.79328358 L10.56,1.03432836 C10.56,0.853731343 10.56,0.705970149 10.6425,0.705970149 L10.6425,0.705970149 C10.692,0.705970149 10.725,0.853731343 10.725,1.03432836 L10.725,9.79328358 Z" id="Path"></path>
                        <path d="M11.022,9.79328358 C11.022,9.9738806 11.022,10.1216418 10.9395,10.1216418 L10.9395,10.1216418 C10.89,10.1216418 10.857,9.9738806 10.857,9.79328358 L10.857,1.03432836 C10.857,0.853731343 10.857,0.705970149 10.9395,0.705970149 L10.9395,0.705970149 C10.989,0.705970149 11.022,0.853731343 11.022,1.03432836 L11.022,9.79328358 Z" id="Path"></path>
                        <path d="M11.319,9.79328358 C11.319,9.9738806 11.319,10.1216418 11.2365,10.1216418 L11.2365,10.1216418 C11.19525,10.1216418 11.154,9.9738806 11.154,9.79328358 L11.154,1.03432836 C11.154,0.853731343 11.154,0.705970149 11.2365,0.705970149 L11.2365,0.705970149 C11.286,0.705970149 11.319,0.853731343 11.319,1.03432836 L11.319,9.79328358 Z" id="Path"></path>
                        <path d="M11.62425,9.79328358 C11.62425,9.9738806 11.62425,10.1216418 11.54175,10.1216418 L11.54175,10.1216418 C11.5005,10.1216418 11.45925,9.9738806 11.45925,9.79328358 L11.45925,1.03432836 C11.45925,0.853731343 11.45925,0.705970149 11.54175,0.705970149 L11.54175,0.705970149 C11.59125,0.705970149 11.62425,0.853731343 11.62425,1.03432836 L11.62425,9.79328358 Z" id="Path"></path>
                        <path d="M11.92125,9.79328358 C11.92125,9.9738806 11.92125,10.1216418 11.83875,10.1216418 L11.83875,10.1216418 C11.7975,10.1216418 11.75625,9.9738806 11.75625,9.79328358 L11.75625,1.03432836 C11.75625,0.853731343 11.75625,0.705970149 11.83875,0.705970149 L11.83875,0.705970149 C11.88,0.705970149 11.92125,0.853731343 11.92125,1.03432836 L11.92125,9.79328358 Z" id="Path"></path>
                        <path d="M12.21825,9.79328358 C12.21825,9.9738806 12.21825,10.1216418 12.13575,10.1216418 L12.13575,10.1216418 C12.08625,10.1216418 12.05325,9.9738806 12.05325,9.79328358 L12.05325,1.03432836 C12.05325,0.853731343 12.05325,0.705970149 12.13575,0.705970149 L12.13575,0.705970149 C12.177,0.705970149 12.21825,0.853731343 12.21825,1.03432836 L12.21825,9.79328358 Z" id="Path"></path>
                        <path d="M12.51525,9.79328358 C12.51525,9.9738806 12.51525,10.1216418 12.43275,10.1216418 L12.43275,10.1216418 C12.38325,10.1216418 12.35025,9.9738806 12.35025,9.79328358 L12.35025,1.03432836 C12.35025,0.853731343 12.35025,0.705970149 12.43275,0.705970149 L12.43275,0.705970149 C12.474,0.705970149 12.51525,0.853731343 12.51525,1.03432836 L12.51525,9.79328358 Z" id="Path"></path>
                        <path d="M12.8205,9.79328358 C12.8205,9.9738806 12.8205,10.1216418 12.738,10.1216418 L12.738,10.1216418 C12.6885,10.1216418 12.6555,9.9738806 12.6555,9.79328358 L12.6555,1.03432836 C12.6555,0.853731343 12.6555,0.705970149 12.738,0.705970149 L12.738,0.705970149 C12.7875,0.705970149 12.8205,0.853731343 12.8205,1.03432836 L12.8205,9.79328358 Z" id="Path"></path>
                        <path d="M13.1175,9.79328358 C13.1175,9.9738806 13.1175,10.1216418 13.035,10.1216418 L13.035,10.1216418 C12.9855,10.1216418 12.9525,9.9738806 12.9525,9.79328358 L12.9525,1.03432836 C12.9525,0.853731343 12.9525,0.705970149 13.035,0.705970149 L13.035,0.705970149 C13.0845,0.705970149 13.1175,0.853731343 13.1175,1.03432836 L13.1175,9.79328358 Z" id="Path"></path>
                        <path d="M13.42275,9.79328358 C13.42275,9.9738806 13.42275,10.1216418 13.34025,10.1216418 L13.34025,10.1216418 C13.299,10.1216418 13.25775,9.9738806 13.25775,9.79328358 L13.25775,1.03432836 C13.25775,0.853731343 13.25775,0.705970149 13.34025,0.705970149 L13.34025,0.705970149 C13.38975,0.705970149 13.42275,0.853731343 13.42275,1.03432836 L13.42275,9.79328358 Z" id="Path"></path>
                        <path d="M13.71975,9.79328358 C13.71975,9.9738806 13.71975,10.1216418 13.63725,10.1216418 L13.63725,10.1216418 C13.596,10.1216418 13.55475,9.9738806 13.55475,9.79328358 L13.55475,1.03432836 C13.55475,0.853731343 13.55475,0.705970149 13.63725,0.705970149 L13.63725,0.705970149 C13.68675,0.705970149 13.71975,0.853731343 13.71975,1.03432836 L13.71975,9.79328358 Z" id="Path"></path>
                        <path d="M14.025,9.79328358 C14.025,9.9738806 14.025,10.1216418 13.9425,10.1216418 L13.9425,10.1216418 C13.90125,10.1216418 13.86,9.9738806 13.86,9.79328358 L13.86,1.03432836 C13.86,0.853731343 13.86,0.705970149 13.9425,0.705970149 L13.9425,0.705970149 C13.992,0.705970149 14.025,0.853731343 14.025,1.03432836 L14.025,9.79328358 Z" id="Path"></path>
                        <path d="M14.31375,9.79328358 C14.31375,9.9738806 14.31375,10.1216418 14.23125,10.1216418 L14.23125,10.1216418 C14.19,10.1216418 14.14875,9.9738806 14.14875,9.79328358 L14.14875,1.03432836 C14.14875,0.853731343 14.14875,0.705970149 14.23125,0.705970149 L14.23125,0.705970149 C14.28075,0.705970149 14.31375,0.853731343 14.31375,1.03432836 L14.31375,9.79328358 Z" id="Path"></path>
                        <path d="M14.619,9.79328358 C14.619,9.9738806 14.619,10.1216418 14.5365,10.1216418 L14.5365,10.1216418 C14.487,10.1216418 14.454,9.9738806 14.454,9.79328358 L14.454,1.03432836 C14.454,0.853731343 14.454,0.705970149 14.5365,0.705970149 L14.5365,0.705970149 C14.57775,0.705970149 14.619,0.853731343 14.619,1.03432836 L14.619,9.79328358 Z" id="Path"></path>
                        <path d="M14.916,9.79328358 C14.916,9.9738806 14.916,10.1216418 14.8335,10.1216418 L14.8335,10.1216418 C14.79225,10.1216418 14.751,9.9738806 14.751,9.79328358 L14.751,1.03432836 C14.751,0.853731343 14.751,0.705970149 14.8335,0.705970149 L14.8335,0.705970149 C14.883,0.705970149 14.916,0.853731343 14.916,1.03432836 L14.916,9.79328358 Z" id="Path"></path>
                        <path d="M15.22125,9.79328358 C15.22125,9.9738806 15.22125,10.1216418 15.13875,10.1216418 L15.13875,10.1216418 C15.0975,10.1216418 15.05625,9.9738806 15.05625,9.79328358 L15.05625,1.03432836 C15.05625,0.853731343 15.05625,0.705970149 15.13875,0.705970149 L15.13875,0.705970149 C15.18825,0.705970149 15.22125,0.853731343 15.22125,1.03432836 L15.22125,9.79328358 Z" id="Path"></path>
                        <path d="M15.51825,9.79328358 C15.51825,9.9738806 15.51825,10.1216418 15.43575,10.1216418 L15.43575,10.1216418 C15.3945,10.1216418 15.35325,9.9738806 15.35325,9.79328358 L15.35325,1.03432836 C15.35325,0.853731343 15.35325,0.705970149 15.43575,0.705970149 L15.43575,0.705970149 C15.477,0.705970149 15.51825,0.853731343 15.51825,1.03432836 L15.51825,9.79328358 Z" id="Path"></path>
                    </g>
                    <path d="M7.79625,18.330597 C7.56394865,18.6174705 7.31607977,18.8915102 7.05375,19.1514925 C6.78975,19.4032338 6.51475,19.6440299 6.22875,19.8738806 C6.08025,19.980597 5.94,20.0955224 5.775,20.2022388 C5.61,20.3089552 5.4615,20.3992537 5.2965,20.4977612 L5.04075,20.6291045 L4.77675,20.7522388 C4.68792193,20.7924861 4.59704904,20.8281064 4.5045,20.8589552 L4.224,20.9492537 L4.29825,20.9492537 C4.20557037,21.0114829 4.11735711,21.0800566 4.03425,21.1544776 C3.94189849,21.2349067 3.85635949,21.3227658 3.7785,21.4171642 C3.61817845,21.5986079 3.48228585,21.8000529 3.37425,22.0164179 C3.14761109,22.4502292 3.01018171,22.9246529 2.97,23.4119403 C2.95124612,23.6605957 2.95124612,23.9102999 2.97,24.1589552 L2.97,24.9798507 L3.02775,26.6216418 C3.02775,27.7216418 3.07725,28.8216418 3.102,29.9052239 C3.12675,30.988806 3.102,32.1052239 3.102,33.188806 C3.102,34.2723881 3.102,35.388806 3.102,36.4723881 C3.102,37.5559701 3.102,38.6723881 3.04425,39.7559701 C2.9865,40.8395522 2.9865,41.9559701 2.94525,43.0395522 C2.904,44.1231343 2.84625,45.2395522 2.7885,46.3231343 L2.7885,46.3641791 C2.7885,46.4544776 2.7885,46.569403 2.7885,46.6679104 C2.7885,46.7664179 2.7885,46.8813433 2.838,46.9880597 C2.8875,47.0947761 2.91225,47.4149254 2.97,47.6201493 C3.02775,47.8253731 3.0195,47.8253731 3.06075,47.9320896 C3.102,48.038806 3.1185,48.1373134 3.15975,48.2358209 C3.201,48.3343284 3.3,48.4164179 3.3,48.5395522 L3.432,48.8350746 L3.5805,49.1223881 C3.63209999,49.2164381 3.68997982,49.3069396 3.75375,49.3932836 C3.80919233,49.4861763 3.87268364,49.5740725 3.9435,49.6559701 L4.158,49.9022388 L4.39725,50.1238806 C4.48005552,50.1961752 4.56831465,50.2620402 4.66125,50.3208955 C4.74822003,50.3882675 4.8422686,50.4460673 4.94175,50.4932836 L5.247,50.6492537 L4.917,50.5671642 C4.80572328,50.5374105 4.69788489,50.4961405 4.59525,50.4440299 C4.48683682,50.4002219 4.3820195,50.348074 4.28175,50.2880597 L3.98475,50.0992537 L3.7125,49.869403 C3.6210984,49.793884 3.53560181,49.711557 3.45675,49.6231343 C3.39997083,49.5383276 3.34765055,49.4506476 3.3,49.3604478 C3.234,49.2701493 3.1515,49.1798507 3.0855,49.0813433 L2.89575,48.7858209 C2.82975,48.6873134 2.78025,48.580597 2.7225,48.4738806 C2.66475,48.3671642 2.61525,48.2604478 2.56575,48.1537313 C2.51625,48.0470149 2.46675,47.9402985 2.4255,47.8253731 C2.38425,47.7104478 2.2605,47.3820896 2.18625,47.1604478 C2.112,46.938806 2.12025,46.930597 2.0955,46.8156716 C2.07075,46.7007463 2.03775,46.5858209 2.02125,46.4544776 L2.02125,46.4052239 C1.95525,45.3052239 1.90575,44.2052239 1.8645,43.1216418 C1.82325,42.0380597 1.79025,40.9216418 1.75725,39.8380597 C1.72425,38.7544776 1.65,37.5970149 1.65,36.4970149 C1.65,35.3970149 1.65,34.2970149 1.65,33.2134328 C1.65,32.1298507 1.65,31.0134328 1.65,29.9298507 C1.65,28.8462687 1.65,27.7298507 1.72425,26.6462687 L1.77375,25.0044776 L1.77375,24.1835821 C1.78105041,23.8807393 1.81138714,23.5788813 1.8645,23.280597 C1.96967808,22.6712319 2.19997035,22.0899821 2.541,21.5731343 C2.71381601,21.3156344 2.91897575,21.0811504 3.1515,20.8753731 C3.28295442,20.7395578 3.42654534,20.6159146 3.5805,20.5059701 C3.71486495,20.4098145 3.85858435,20.327312 4.0095,20.2597015 L4.05075,20.2597015 L4.125,20.2597015 L4.36425,20.2104478 C4.44507446,20.1960305 4.52496554,20.1768423 4.6035,20.1529851 L4.84275,20.0791045 L5.082,19.988806 C5.40600931,19.8550143 5.7226994,19.7043073 6.03075,19.5373134 C6.34425,19.3649254 6.64125,19.1761194 6.9465,18.9791045 C7.25175,18.7820896 7.5075,18.5522388 7.79625,18.330597 Z" id="Path" fill="#FFFFFF" fill-rule="nonzero" style="mix-blend-mode: soft-light;"></path>
                    <path d="M16.698,18.330597 C16.9221359,18.6169581 17.1617389,18.8909936 17.41575,19.1514925 C17.66875,19.4032338 17.94375,19.6440299 18.24075,19.8738806 C18.381,19.980597 18.52125,20.0955224 18.66975,20.2022388 C18.81825,20.3089552 18.975,20.3992537 19.13175,20.4977612 L19.371,20.6291045 L19.6185,20.7522388 C19.7044921,20.7925435 19.792622,20.8281682 19.8825,20.8589552 L20.15475,20.9492537 L20.0805,20.9492537 C20.1703599,21.0117702 20.2558099,21.0803387 20.33625,21.1544776 C20.4259304,21.2350568 20.5087161,21.3229222 20.58375,21.4171642 C20.7387286,21.5992221 20.8690863,21.8006852 20.9715,22.0164179 C21.1894244,22.4525722 21.3210625,22.9263412 21.35925,23.4119403 C21.3769253,23.6606347 21.3769253,23.9102608 21.35925,24.1589552 L21.35925,24.9798507 L21.30975,26.6216418 C21.30975,27.7216418 21.26025,28.8216418 21.24375,29.9052239 C21.22725,30.988806 21.24375,32.1052239 21.24375,33.188806 C21.24375,34.2723881 21.24375,35.388806 21.24375,36.4723881 C21.24375,37.5559701 21.24375,38.6723881 21.29325,39.7559701 C21.34275,40.8395522 21.351,41.9559701 21.39225,43.0395522 C21.4335,44.1231343 21.483,45.2395522 21.54075,46.3231343 L21.54075,46.3641791 C21.54075,46.4544776 21.54075,46.569403 21.54075,46.6679104 C21.54075,46.7664179 21.54075,46.8813433 21.49125,46.9880597 C21.44175,47.0947761 21.417,47.4149254 21.3675,47.6201493 C21.318,47.8253731 21.318,47.8253731 21.285,47.9320896 C21.252,48.038806 21.22725,48.1373134 21.186,48.2358209 C21.14475,48.3343284 21.12,48.4410448 21.0705,48.5395522 L20.9385,48.8350746 L20.79,49.1223881 C20.7405442,49.2159168 20.6854434,49.3063808 20.625,49.3932836 C20.5716696,49.4855422 20.5109743,49.5733871 20.4435,49.6559701 L20.23725,49.9022388 L20.00625,50.1238806 C19.9260645,50.1958155 19.8405753,50.2616714 19.7505,50.3208955 C19.6664692,50.3882451 19.5751554,50.4460648 19.47825,50.4932836 L19.1895,50.6492537 L19.51125,50.5671642 C19.6199769,50.5376977 19.7251109,50.496404 19.82475,50.4440299 C19.9304932,50.400171 20.0325648,50.3480167 20.13,50.2880597 L20.4105,50.0992537 L20.6745,49.869403 C20.7606311,49.793698 20.840629,49.7113532 20.91375,49.6231343 C20.9933374,49.5401947 21.0677276,49.4524672 21.1365,49.3604478 C21.2025,49.2701493 21.27675,49.1798507 21.34275,49.0813433 L21.52425,48.7858209 C21.582,48.6873134 21.6315,48.580597 21.68925,48.4738806 C21.747,48.3671642 21.78825,48.2604478 21.83775,48.1537313 C21.88725,48.0470149 21.9285,47.9402985 21.96975,47.8253731 C22.011,47.7104478 22.13475,47.3820896 22.1925,47.1604478 C22.25025,46.938806 22.25025,46.930597 22.28325,46.8156716 C22.31625,46.7007463 22.33275,46.5858209 22.3575,46.4544776 L22.3575,46.4052239 C22.4235,45.3052239 22.46475,44.2052239 22.506,43.1216418 C22.54725,42.0380597 22.58025,40.9216418 22.605,39.8380597 C22.62975,38.7544776 22.64625,37.6380597 22.6545,36.5544776 C22.66275,35.4708955 22.6545,34.3544776 22.6545,33.2708955 C22.6545,32.1873134 22.6545,31.0708955 22.6545,29.9873134 C22.6545,28.9037313 22.6545,27.7873134 22.5885,26.7037313 L22.539,25.0619403 L22.539,24.2410448 C22.5309667,23.9382476 22.5006354,23.6364437 22.44825,23.3380597 C22.3479631,22.7312585 22.1263395,22.1506462 21.7965,21.630597 C21.6314235,21.3744934 21.434629,21.1400665 21.21075,20.9328358 C21.1024688,20.8287598 20.9866578,20.7327308 20.86425,20.6455224 C20.7353523,20.5499438 20.5971634,20.4674431 20.45175,20.3992537 L20.4105,20.3992537 L20.4105,20.3992537 L20.1795,20.35 C20.1013715,20.3356555 20.024221,20.3164639 19.9485,20.2925373 L19.7175,20.2186567 L19.4865,20.1283582 C19.1759389,19.9944676 18.8729847,19.8437441 18.579,19.6768657 C18.282,19.5044776 17.985,19.3156716 17.7045,19.1186567 C17.424,18.9216418 16.9785,18.5522388 16.698,18.330597 Z" id="Path" fill="#FFFFFF" fill-rule="nonzero" style="mix-blend-mode: soft-light;"></path>
                </g>
            </g>
        </g>
    </g>
</svg>