<?xml version="1.0" encoding="UTF-8"?>
<svg width="46px" height="45px" viewBox="0 0 46 45" version="1.1" xmlns="http://www.w3.org/2000/svg" xmlns:xlink="http://www.w3.org/1999/xlink">
    <!-- Generator: Sketch 53.2 (72643) - https://sketchapp.com -->
    <title>Group 19</title>
    <desc>Created with Sketch.</desc>
    <defs>
        <polygon id="path-1" points="0.0367192623 0.131506027 51.3706199 0.131506027 51.3706199 22.0931334 0.0367192623 22.0931334"></polygon>
        <path d="M25.6434682,0.0980383562 L10.7550922,0.0980383562 C4.81526127,0.0980383562 0,5.01428219 0,11.0788521 L0,11.0788521 C0,17.1434219 4.81526127,22.0598384 10.7550922,22.0598384 L10.7550922,22.0598384 L25.6434682,22.0598384 L40.5786732,22.0598384 C46.5186732,22.0598384 51.3339344,17.1434219 51.3339344,11.0788521 L51.3339344,11.0788521 C51.3339344,5.01428219 46.5186732,0.0980383562 40.5786732,0.0980383562 L40.5786732,0.0980383562 L25.6434682,0.0980383562 Z" id="path-3"></path>
        <linearGradient x1="50.000062%" y1="100.359925%" x2="50.000062%" y2="0.639620874%" id="linearGradient-5">
            <stop stop-color="#FFFFFF" offset="0%"></stop>
            <stop stop-color="#D3D3D3" offset="100%"></stop>
        </linearGradient>
        <polygon id="path-6" points="0.139472336 0.0982109589 2.33552766 0.0982109589 2.33552766 22.0598384 0.139472336 22.0598384"></polygon>
        <linearGradient x1="49.9960624%" y1="99.8337288%" x2="49.9960624%" y2="0.497050039%" id="linearGradient-8">
            <stop stop-color="#F0F2F2" offset="0%"></stop>
            <stop stop-color="#D0D0D0" offset="100%"></stop>
        </linearGradient>
        <linearGradient x1="100.76349%" y1="49.9997255%" x2="-0.0617972743%" y2="49.9997255%" id="linearGradient-9">
            <stop stop-color="#D5D5D5" offset="0%"></stop>
            <stop stop-color="#EEEEEE" offset="100%"></stop>
        </linearGradient>
    </defs>
    <g id="Page-1" stroke="none" stroke-width="1" fill="none" fill-rule="evenodd">
        <g id="Home-1-Copy" transform="translate(-104.000000, -268.000000)">
            <g id="Group-19" transform="translate(128.500000, 290.500000) rotate(-45.000000) translate(-128.500000, -290.500000) translate(101.000000, 277.000000)">
                <g id="Group-6" transform="translate(0.676230, 0.057304)">
                    <g id="Group-3" transform="translate(2.028689, 2.934247)">
                        <mask id="mask-2" fill="white">
                            <use xlink:href="#path-1"></use>
                        </mask>
                        <g id="Clip-2"></g>
                        <path d="M39.180893,0.131506027 L24.2456881,0.131506027 L9.35731206,0.131506027 C3.41748112,0.131506027 -1.39778015,5.04774986 -1.39778015,11.1123197 C-1.39778015,17.1768896 3.41748112,22.0931334 9.35731206,22.0931334 L24.2456881,22.0931334 L39.180893,22.0931334 C45.120893,22.0931334 49.9361543,17.1768896 49.9361543,11.1123197 C49.9361543,5.04774986 45.120893,0.131506027 39.180893,0.131506027" id="Fill-1" fill="#F1F1F1" mask="url(#mask-2)"></path>
                    </g>
                    <path d="M40.6352059,0.115333151 L25.700001,0.115333151 L10.811625,0.115333151 C4.87179406,0.115333151 0.0565327869,5.03157699 0.0565327869,11.0961468 L0.0565327869,11.0961468 C0.0565327869,17.1607167 4.87179406,22.0769605 10.811625,22.0769605 L25.700001,22.0769605 L40.6352059,22.0769605 C46.5752059,22.0769605 51.3904672,17.1607167 51.3904672,11.0961468 L51.3904672,11.0961468 C51.3904672,5.03157699 46.5752059,0.115333151 40.6352059,0.115333151" id="Fill-4" fill="#FFFFFF"></path>
                </g>
                <g id="Group-9" transform="translate(0.000000, 1.265523)">
                    <mask id="mask-4" fill="white">
                        <use xlink:href="#path-3"></use>
                    </mask>
                    <g id="Clip-8"></g>
                    <path d="M25.6434682,0.0980383562 L10.7550922,0.0980383562 C4.81526127,0.0980383562 0,5.01428219 0,11.0788521 L0,11.0788521 C0,17.1434219 4.81526127,22.0598384 10.7550922,22.0598384 L10.7550922,22.0598384 L25.6434682,22.0598384 L40.5786732,22.0598384 C46.5186732,22.0598384 51.3339344,17.1434219 51.3339344,11.0788521 L51.3339344,11.0788521 C51.3339344,5.01428219 46.5186732,0.0980383562 40.5786732,0.0980383562 L40.5786732,0.0980383562 L25.6434682,0.0980383562 Z" id="Fill-7" fill="url(#linearGradient-5)" mask="url(#mask-4)"></path>
                </g>
                <g id="Group-12" transform="translate(25.527664, 1.265523)">
                    <mask id="mask-7" fill="white">
                        <use xlink:href="#path-6"></use>
                    </mask>
                    <g id="Clip-11"></g>
                    <polygon id="Fill-10" fill="url(#linearGradient-8)" mask="url(#mask-7)" points="0.139472336 22.0598384 2.33552766 22.0598384 2.33552766 0.0982109589 0.139472336 0.0982109589"></polygon>
                </g>
                <g id="Group-18" transform="translate(27.049180, 1.265523)" fill="url(#linearGradient-9)">
                    <polygon id="Fill-13" points="0.0236 22.0876274 0.9628 22.0876274 0.9628 0.0982109589 0.0236 0.0982109589"></polygon>
                </g>
            </g>
        </g>
    </g>
</svg>