<?xml version="1.0" encoding="UTF-8"?>
<svg width="30px" height="30px" viewBox="0 0 30 30" version="1.1" xmlns="http://www.w3.org/2000/svg" xmlns:xlink="http://www.w3.org/1999/xlink">
    <!-- Generator: Sketch 53.2 (72643) - https://sketchapp.com -->
    <title>shopping-bag (1)</title>
    <desc>Created with Sketch.</desc>
    <g id="Page-1" stroke="none" stroke-width="1" fill="none" fill-rule="evenodd">
        <g id="Home-without-quote" transform="translate(-25.000000, -662.000000)" fill-rule="nonzero">
            <g id="shopping-bag-(1)" transform="translate(25.000000, 662.000000)">
                <path d="M19.9557558,4.31175743 C19.6027326,1.85378713 17.4490116,0 14.9462791,0 C13.3367442,0 11.8081395,0.771559406 10.8577326,2.06465347 C10.6636047,2.32836634 10.721686,2.69829208 10.9871512,2.89113861 C11.2517442,3.08329208 11.625,3.02628713 11.8187791,2.76222772 C12.5462791,1.77339109 13.7152326,1.18289604 14.9461047,1.18289604 C16.8601744,1.18289604 18.5068605,2.59987624 18.7768605,4.47861386 C18.8194186,4.77368812 19.0742442,4.98663366 19.3656977,4.98663366 C19.3934302,4.98663366 19.4220349,4.98455446 19.4504651,4.98074257 C19.7759302,4.9344802 20.0021512,4.63490099 19.9557558,4.31175743 Z" id="Path" fill="#AABFBF"></path>
                <path d="M28.5544186,10.9324752 L26.7683721,7.97532178 C26.6609302,7.7970297 26.4671512,7.68821782 26.2578488,7.68821782 L24.5462791,7.68821782 C24.2176744,7.68821782 23.9509884,7.95314356 23.9509884,8.27957921 C23.9509884,8.60601485 24.2176744,8.87094059 24.5462791,8.87094059 L25.9208721,8.87094059 L26.9925,10.645198 L2.89988372,10.645198 L3.97151163,8.87094059 L4.60203488,8.87094059 C4.93063953,8.87094059 5.19732558,8.60601485 5.19732558,8.27957921 C5.19732558,7.95314356 4.93063953,7.68821782 4.60203488,7.68821782 L3.63453488,7.68821782 C3.42523256,7.68821782 3.23145349,7.7970297 3.12401163,7.97532178 L1.33796512,10.9324752 C1.22755814,11.1154455 1.22494186,11.3429455 1.33046512,11.5283416 C1.43598837,11.7137376 1.63377907,11.8284406 1.84848837,11.8284406 L28.0438953,11.8284406 C28.2586047,11.8284406 28.4562209,11.7137376 28.5619186,11.5283416 C28.6676163,11.3429455 28.6648256,11.115099 28.5544186,10.9324752 Z" id="Path" fill="#AABFBF"></path>
                <path d="M25.5868605,5.47923267 C25.5034884,5.34564356 25.370407,5.25086634 25.2165698,5.21517327 L17.1006977,3.32950495 C16.9470349,3.29363861 16.7851744,3.32032178 16.6508721,3.40279703 C16.5169186,3.48561881 16.4213372,3.61782178 16.385407,3.77064356 L15.7733721,6.36965347 C15.6983721,6.68759901 15.8972093,7.00571782 16.2174419,7.07987624 C16.5375,7.15438119 16.8580814,6.95685644 16.9327326,6.63873762 L17.4092442,4.61584158 L24.3655814,6.23225248 L23.2725,10.8749505 C23.1975,11.192896 23.3963372,11.5110149 23.7165698,11.5851733 C23.7624419,11.5957426 23.8079651,11.6007673 23.8529651,11.6007673 C24.123314,11.6007673 24.3680233,11.4167574 24.431686,11.1442079 L25.6604651,5.92574257 C25.6967442,5.77309406 25.6702326,5.61230198 25.5868605,5.47923267 Z" id="Path" fill="#AABFBF"></path>
                <path d="M15.2611047,6.87732673 L14.7186628,2.3195297 C14.7001744,2.16376238 14.6201163,2.0215099 14.4959302,1.9244802 C14.3717442,1.8274505 14.2149419,1.78309406 14.0574419,1.8014604 L4.09988372,2.97066832 C3.77354651,3.00913366 3.54017442,3.30299505 3.57872093,3.62752475 L4.4830814,11.2292822 C4.51901163,11.5302475 4.77593023,11.7515099 5.07366279,11.7515099 C5.09686047,11.7515099 5.12075581,11.7499505 5.14447674,11.7473515 C5.47063953,11.7088861 5.70401163,11.4150248 5.66563953,11.090495 L4.83104651,4.07559406 L13.6062209,3.04534653 L14.0785465,7.01576733 C14.1172674,7.34012376 14.411686,7.57056931 14.7397674,7.53383663 C15.0661047,7.49571782 15.2994767,7.20168317 15.2611047,6.87732673 Z" id="Path" fill="#AABFBF"></path>
                <path d="M19.9695349,11.0121782 L18.7878488,6.13054455 C18.7508721,5.97824257 18.6544186,5.84638614 18.5199419,5.76443069 C18.3854651,5.68316832 18.2241279,5.65769802 18.0697674,5.69408416 L8.47901163,7.98537129 C8.15930233,8.06160891 7.96255814,8.38111386 8.03930233,8.69871287 L8.62988372,11.1386634 C8.70662791,11.4566089 9.02825581,11.6522277 9.3477907,11.5754703 C9.6675,11.4992327 9.86424419,11.1797277 9.7875,10.8621287 L9.33593023,8.99707921 L17.7690698,6.98267327 L18.8115698,11.2890594 C18.8769767,11.5602228 19.1211628,11.7421535 19.3899419,11.7421535 C19.4361628,11.7421535 19.482907,11.7367822 19.5298256,11.7255198 C19.8495349,11.6491089 20.0462791,11.3297772 19.9695349,11.0121782 Z" id="Path" fill="#AABFBF"></path>
                <path d="M28.6390116,11.2067574 C28.6226163,10.8924505 28.3613372,10.6457178 28.0442442,10.6457178 L1.84883721,10.6457178 C1.53174419,10.6457178 1.27046512,10.8922772 1.25406977,11.2067574 L0.0633139535,29.272104 C0.0549418605,29.4339356 0.113895349,29.592302 0.22622093,29.7097772 C0.33872093,29.8270792 0.494651163,29.8937871 0.657906977,29.8937871 L29.2346512,29.8937871 C29.3977326,29.8937871 29.5538372,29.8272525 29.6668605,29.7097772 C29.7790116,29.592302 29.8379651,29.4341089 29.8297674,29.272104 L28.6390116,11.2067574 Z" id="Shape" fill="#AABFBF"></path>
                <path d="M19.4113953,13.0111634 C18.4264535,13.0111634 17.6253488,13.8069802 17.6253488,14.7854208 C17.6253488,15.7638614 18.4264535,16.5596782 19.4113953,16.5596782 C20.3963372,16.5596782 21.1974419,15.7638614 21.1974419,14.7854208 C21.1974419,13.8069802 20.3963372,13.0111634 19.4113953,13.0111634 Z M19.4113953,15.3769554 C19.0829651,15.3769554 18.8161047,15.1116832 18.8161047,14.7855941 C18.8161047,14.459505 19.0831395,14.1942327 19.4113953,14.1942327 C19.7396512,14.1942327 20.006686,14.459505 20.006686,14.7855941 C20.006686,15.1116832 19.7396512,15.3769554 19.4113953,15.3769554 Z" id="Shape" fill="#FFFFFF"></path>
                <path d="M10.4811628,13.0111634 C9.49622093,13.0111634 8.69511628,13.8069802 8.69511628,14.7854208 C8.69511628,15.7638614 9.49622093,16.5596782 10.4811628,16.5596782 C11.4661047,16.5596782 12.2672093,15.7638614 12.2672093,14.7854208 C12.2672093,13.8069802 11.4661047,13.0111634 10.4811628,13.0111634 Z M10.4811628,15.3769554 C10.152907,15.3769554 9.88587209,15.1116832 9.88587209,14.7855941 C9.88587209,14.459505 10.152907,14.1942327 10.4811628,14.1942327 C10.8094186,14.1942327 11.0764535,14.459505 11.0764535,14.7855941 C11.0764535,15.1116832 10.8094186,15.3769554 10.4811628,15.3769554 Z" id="Shape" fill="#FFFFFF"></path>
                <path d="M19.4113953,14.7854208 L19.3655233,14.7854208 C19.0369186,14.7854208 18.7702326,15.0503465 18.7702326,15.3767822 C18.7702326,15.4575248 18.7862791,15.5346287 18.8161047,15.604802 L18.8161047,17.6295297 C18.8161047,19.7491089 17.0801163,21.4738119 14.9462791,21.4738119 C12.8124419,21.4738119 11.0764535,19.7492822 11.0764535,17.6295297 L11.0764535,15.3769554 C11.0764535,15.0505198 10.8097674,14.7855941 10.4811628,14.7855941 C10.1525581,14.7855941 9.88587209,15.0505198 9.88587209,15.3769554 L9.88587209,17.629703 C9.88587209,20.4016337 12.1559302,22.6567079 14.9462791,22.6567079 C17.7366279,22.6567079 20.006686,20.4016337 20.006686,17.629703 L20.006686,15.3769554 C20.006686,15.0505198 19.74,14.7854208 19.4113953,14.7854208 Z" id="Path" fill="#FFFFFF"></path>
            </g>
        </g>
    </g>
</svg>