<?xml version="1.0" encoding="UTF-8"?>
<svg width="26px" height="26px" viewBox="0 0 26 26" version="1.1" xmlns="http://www.w3.org/2000/svg" xmlns:xlink="http://www.w3.org/1999/xlink">
    <!-- Generator: Sketch 53.2 (72643) - https://sketchapp.com -->
    <title>snooze-24px</title>
    <desc>Created with Sketch.</desc>
    <g id="Page-1" stroke="none" stroke-width="1" fill="none" fill-rule="evenodd">
        <g id="Home-without-quote" transform="translate(-230.000000, -526.000000)">
            <g id="snooze-24px" transform="translate(228.000000, 524.000000)">
                <polygon id="Path" points="0 0 30 0 30 30 0 30"></polygon>
                <path d="M9.85,4.2375 L8.25,2.325 L2.5,7.1375 L4.1125,9.05 L9.85,4.2375 Z M27.5,7.15 L21.75,2.325 L20.1375,4.2375 L25.8875,9.0625 L27.5,7.15 Z M15,5 C8.7875,5 3.75,10.0375 3.75,16.25 C3.75,22.4625 8.775,27.5 15,27.5 C21.2125,27.5 26.25,22.4625 26.25,16.25 C26.25,10.0375 21.2125,5 15,5 Z M15,25 C10.1625,25 6.25,21.0875 6.25,16.25 C6.25,11.4125 10.1625,7.5 15,7.5 C19.8375,7.5 23.75,11.4125 23.75,16.25 C23.75,21.0875 19.8375,25 15,25 Z M11.25,13.75 L15.7875,13.75 L11.25,19 L11.25,21.25 L18.75,21.25 L18.75,18.75 L14.2125,18.75 L18.75,13.5 L18.75,11.25 L11.25,11.25 L11.25,13.75 Z" id="Shape" fill="#000000" fill-rule="nonzero"></path>
            </g>
        </g>
    </g>
</svg>