<?xml version="1.0" encoding="UTF-8"?>
<svg width="36px" height="36px" viewBox="0 0 36 36" version="1.1" xmlns="http://www.w3.org/2000/svg" xmlns:xlink="http://www.w3.org/1999/xlink">
    <!-- Generator: Sketch 53.2 (72643) - https://sketchapp.com -->
    <title>Group 13</title>
    <desc>Created with Sketch.</desc>
    <defs>
        <polygon id="path-1" points="0.698759722 0.156554795 41.6987597 0.156554795 41.6987597 20.8565548 0.698759722 20.8565548"></polygon>
        <path d="M11.718394,0.409605548 C5.63690665,0.409605548 0.707305855,5.24485889 0.707305855,11.2095207 L0.707305855,11.2095207 C0.707305855,17.1741824 5.63690665,22.0096055 11.718394,22.0096055 L11.718394,22.0096055 L29.6962177,22.0096055 C35.7773035,22.0096055 40.7073059,17.1741824 40.7073059,11.2095207 L40.7073059,11.2095207 C40.7073059,5.24485889 35.7773035,0.409605548 29.6962177,0.409605548 L29.6962177,0.409605548 L11.718394,0.409605548 Z" id="path-3"></path>
        <linearGradient x1="49.9997031%" y1="100.359925%" x2="49.9997031%" y2="1.48305528%" id="linearGradient-5">
            <stop stop-color="#FFFFFF" offset="0%"></stop>
            <stop stop-color="#EBEBEB" offset="100%"></stop>
        </linearGradient>
    </defs>
    <g id="Page-1" stroke="none" stroke-width="1" fill="none" fill-rule="evenodd">
        <g id="Home-1-Copy" transform="translate(-109.000000, -1135.000000)">
            <g id="Group-5" transform="translate(68.000000, 171.000000)">
                <g id="Group-13" transform="translate(34.851624, 957.209318)">
                    <g id="Group-6" transform="translate(24.500000, 24.500000) rotate(-45.000000) translate(-24.500000, -24.500000) translate(3.000000, 12.000000)">
                        <g id="Group-3" transform="translate(0.393519, 3.082192)">
                            <mask id="mask-2" fill="white">
                                <use xlink:href="#path-1"></use>
                            </mask>
                            <g id="Clip-2"></g>
                            <path d="M12.4527779,-0.369215137 C6.42342146,-0.369215137 1.53535664,4.39829014 1.53535664,10.2793794 C1.53535664,16.1604687 5.71631468,20.8903901 11.7456712,20.8903901 L29.5707638,20.8903901 C35.6003193,20.8903901 41.1954909,16.1604687 41.1954909,10.2793794 C41.1954909,4.39829014 36.3074261,-0.369215137 30.2778705,-0.369215137 L12.4527779,-0.369215137 Z" id="Fill-1" fill="#F1F1F1" mask="url(#mask-2)"></path>
                        </g>
                        <path d="M30.1818659,0.844408151 L12.3567733,0.844408151 C6.32741683,0.844408151 1.43935202,5.57779909 1.43935202,11.4168057 L1.43935202,11.4168057 C1.43935202,17.2558122 6.32741683,21.9892032 12.3567733,21.9892032 L30.1818659,21.9892032 C36.2114215,21.9892032 41.0992872,17.2558122 41.0992872,11.4168057 L41.0992872,11.4168057 C41.0992872,5.57779909 36.2114215,0.844408151 30.1818659,0.844408151" id="Fill-4" fill="#FFFFFF"></path>
                    </g>
                    <g id="Group-9" transform="translate(23.534006, 24.090526) rotate(-45.000000) translate(-23.534006, -24.090526) translate(3.034006, 12.590526)">
                        <mask id="mask-4" fill="white">
                            <use xlink:href="#path-3"></use>
                        </mask>
                        <g id="Clip-8"></g>
                        <path d="M11.6247272,1.82381911 C5.59497252,1.82381911 0.707305855,6.55721874 0.707305855,12.396236 L0.707305855,12.396236 C0.707305855,18.2352533 5.59497252,22.9688191 11.6247272,22.9688191 L11.6247272,22.9688191 L29.4496207,22.9688191 C35.4789772,22.9688191 40.367042,18.2352533 40.367042,12.396236 L40.367042,12.396236 C40.367042,6.55721874 35.4789772,1.82381911 29.4496207,1.82381911 L29.4496207,1.82381911 L11.6247272,1.82381911 Z" id="Fill-7" fill="url(#linearGradient-5)" mask="url(#mask-4)"></path>
                    </g>
                </g>
            </g>
        </g>
    </g>
</svg>